# xmcd
#
# Track frame offsets: 
#        150
#        20659
#        34227
#        61869
#        74895
#        104867
#        123935
#        138012
#        164448
#
# Disc length: 2533 seconds
#
# Revision: 0
# Processed by: cddbd v1.5.2PL0 Copyright (c) Steve Scherf et al.
# Submitted via: ExactAudioCopyFreeDBPlugin 1.0
#
DISCID=8509e309
DTITLE=Dead Tuna  - Alive and Well
DYEAR=2016
DGENRE=Blues
TTITLE0=Deal 
TTITLE1=Drink a Little Love 
TTITLE2=Sugaree 
TTITLE3=Dead Tuna Country Blues 
TTITLE4=Know You Rider 
TTITLE5=How Long Blues 
TTITLE6=Dark Hallow 
TTITLE7=Dead Don´t Have No Mercy 
TTITLE8=Keep On Truckin´ -  Monkey and the Engineer
EXTD=
EXTT0=
EXTT1=
EXTT2=
EXTT3=
EXTT4=
EXTT5=
EXTT6=
EXTT7=
EXTT8=
PLAYORDER=
